<svg width="25" height="24" viewBox="0 0 25 24" fill="none" xmlns="http://www.w3.org/2000/svg">
<path d="M3.25 6C3.25 4.34315 4.59315 3 6.25 3H14.25C15.9069 3 17.25 4.34315 17.25 6V14C17.25 15.6569 15.9069 17 14.25 17H6.25C4.59315 17 3.25 15.6569 3.25 14V6Z" stroke="#868686" stroke-width="1.5" stroke-linecap="round" stroke-linejoin="round"/>
<path d="M21.25 7V18C21.25 19.6569 19.9069 21 18.25 21H7.25" stroke="#868686" stroke-width="1.5" stroke-linecap="round" stroke-linejoin="round"/>
<path d="M3.25 12.375L6.91789 8.70708C7.30842 8.31655 7.94158 8.31655 8.33211 8.70708L11.125 11.5M11.125 11.5L13.4804 9.14457C13.8709 8.75405 14.5041 8.75405 14.8946 9.14458L17.25 11.5M11.125 11.5L13.0938 13.4688" stroke="#868686" stroke-width="1.5" stroke-linecap="round" stroke-linejoin="round"/>
</svg>
