<svg width="33" height="32" viewBox="0 0 33 32" fill="none" xmlns="http://www.w3.org/2000/svg">
<path d="M28.6532 8.97338C28.6265 8.97338 28.5865 8.97338 28.5465 8.97338C21.4932 8.26672 14.4532 8.00005 7.47987 8.70672L4.75987 8.97338C4.19987 9.02672 3.70654 8.62672 3.65321 8.06672C3.59987 7.50672 3.99987 7.02672 4.54654 6.97338L7.26654 6.70672C14.3599 5.98672 21.5465 6.26672 28.7465 6.97338C29.2932 7.02672 29.6932 7.52005 29.6399 8.06672C29.5999 8.58672 29.1599 8.97338 28.6532 8.97338Z" fill="#D18F41"/>
<path d="M11.9854 7.62663C11.932 7.62663 11.8787 7.62663 11.812 7.61329C11.2787 7.51996 10.9054 6.99996 10.9987 6.46663L11.292 4.71996C11.5054 3.43996 11.7987 1.66663 14.9054 1.66663H18.3987C21.5187 1.66663 21.812 3.50663 22.012 4.73329L22.3054 6.46663C22.3987 7.01329 22.0254 7.53329 21.492 7.61329C20.9454 7.70663 20.4254 7.33329 20.3454 6.79996L20.052 5.06663C19.8654 3.90663 19.8254 3.67996 18.412 3.67996H14.9187C13.5054 3.67996 13.4787 3.86663 13.2787 5.05329L12.972 6.78663C12.892 7.27996 12.4654 7.62663 11.9854 7.62663Z" fill="#D18F41"/>
<path d="M20.9316 30.3333H12.3716C7.71822 30.3333 7.53156 27.76 7.38489 25.68L6.51822 12.2533C6.47822 11.7066 6.90489 11.2266 7.45156 11.1866C8.01156 11.16 8.47822 11.5733 8.51822 12.12L9.38489 25.5466C9.53156 27.5733 9.58489 28.3333 12.3716 28.3333H20.9316C23.7316 28.3333 23.7849 27.5733 23.9182 25.5466L24.7849 12.12C24.8249 11.5733 25.3049 11.16 25.8516 11.1866C26.3982 11.2266 26.8249 11.6933 26.7849 12.2533L25.9182 25.68C25.7716 27.76 25.5849 30.3333 20.9316 30.3333Z" fill="#D18F41"/>
<path d="M18.8658 23H14.4258C13.8791 23 13.4258 22.5467 13.4258 22C13.4258 21.4533 13.8791 21 14.4258 21H18.8658C19.4124 21 19.8658 21.4533 19.8658 22C19.8658 22.5467 19.4124 23 18.8658 23Z" fill="#D18F41"/>
<path d="M19.985 17.6666H13.3184C12.7717 17.6666 12.3184 17.2133 12.3184 16.6666C12.3184 16.12 12.7717 15.6666 13.3184 15.6666H19.985C20.5317 15.6666 20.985 16.12 20.985 16.6666C20.985 17.2133 20.5317 17.6666 19.985 17.6666Z" fill="#D18F41"/>
</svg>
