<svg width="51" height="58" viewBox="0 0 51 58" fill="none" xmlns="http://www.w3.org/2000/svg">
<path d="M17.5392 13.4163C17.8004 13.4163 18.0012 13.3459 18.2524 13.1651L20.874 11.2265C21.095 11.0658 21.2155 10.8247 21.2155 10.5635C21.2155 10.0915 20.8439 9.74995 20.422 9.74995C20.2312 9.74995 20.0604 9.80018 19.9097 9.92069L18.5638 10.9653C19.066 6.87719 22.5314 3.73319 26.7602 3.73319C31.3506 3.73319 35.0269 7.41959 35.037 11.9999C35.0471 16.5903 31.3606 20.2767 26.7602 20.2767C24.1988 20.2767 21.9789 19.1115 20.4622 17.3537C20.2412 17.1026 19.98 16.9921 19.7289 16.9921C19.3171 16.9921 18.9354 17.3236 18.9354 17.7857C18.9354 18.0066 19.0358 18.2578 19.2568 18.529C21.0146 20.6183 23.7669 21.9743 26.7602 21.9743C32.2244 21.9743 36.7346 17.4542 36.7346 11.9999C36.7346 6.55572 32.2144 2.02563 26.7602 2.02563C21.7077 2.02563 17.4488 5.92294 16.8562 10.8448L15.7814 9.31804C15.6206 9.08699 15.3796 8.93635 15.0883 8.93635C14.6262 8.93635 14.2646 9.26781 14.2646 9.72985C14.2646 9.93076 14.3249 10.1216 14.4455 10.2723L16.5548 12.8738C16.8762 13.2756 17.1374 13.4163 17.5392 13.4163ZM24.2189 15.2946C24.2189 15.7466 24.7211 15.9576 25.1631 15.6964L30.547 12.5122C30.9387 12.2812 30.9287 11.7287 30.547 11.4977L25.1631 8.31355C24.7512 8.07248 24.2189 8.25329 24.2189 8.71533V15.2946Z" fill="#D18F41"/>
<path d="M15.7498 39H13.9258V32.028H11.2138V30.384H18.4738V32.028H15.7498V39ZM21.5256 31.104C21.5256 31.668 21.0696 32.088 20.4096 32.088C19.7616 32.088 19.3056 31.668 19.3056 31.104C19.3056 30.516 19.7616 30.096 20.4096 30.096C21.0696 30.096 21.5256 30.516 21.5256 31.104ZM21.2616 39H19.5936V32.592H21.2616V39ZM24.414 39H22.746V32.592H24.282V33.504C24.75 32.856 25.35 32.472 26.202 32.472C27.078 32.472 27.75 32.88 28.074 33.612C28.578 32.904 29.226 32.472 30.186 32.472C31.482 32.472 32.358 33.324 32.358 34.86V39H30.702V35.388C30.702 34.488 30.318 33.948 29.586 33.948C28.926 33.948 28.386 34.464 28.386 35.424V39H26.73V35.388C26.73 34.488 26.346 33.948 25.614 33.948C24.942 33.948 24.414 34.464 24.414 35.424V39ZM36.569 39.108C34.649 39.108 33.365 37.776 33.365 35.772C33.365 33.864 34.697 32.472 36.545 32.472C38.573 32.472 39.917 34.116 39.617 36.204H35.069C35.177 37.248 35.681 37.824 36.533 37.824C37.265 37.824 37.757 37.464 37.949 36.828H39.605C39.245 38.28 38.129 39.108 36.569 39.108ZM36.509 33.696C35.729 33.696 35.237 34.2 35.093 35.148H37.853C37.805 34.26 37.301 33.696 36.509 33.696ZM6.58486 55.18C4.16086 55.18 2.26486 53.212 2.26486 50.68C2.26486 48.16 4.16086 46.204 6.58486 46.204C8.85286 46.204 10.6289 47.716 10.9289 49.924H8.99686C8.79286 48.688 7.83286 47.836 6.60886 47.836C5.13286 47.836 4.13686 49 4.13686 50.68C4.13686 52.372 5.13286 53.548 6.60886 53.548C7.83286 53.548 8.78086 52.684 8.99686 51.448H10.9289C10.6289 53.68 8.85286 55.18 6.58486 55.18ZM15.8745 55V54.208C15.4545 54.808 14.8185 55.12 13.9425 55.12C12.6105 55.12 11.7225 54.34 11.7225 53.14C11.7225 51.892 12.7305 51.22 14.6025 51.22C14.9625 51.22 15.2745 51.244 15.6705 51.292V50.908C15.6705 50.188 15.2625 49.768 14.5665 49.768C13.8465 49.768 13.4145 50.188 13.3545 50.908H11.8545C11.9505 49.432 13.0185 48.472 14.5665 48.472C16.2465 48.472 17.2305 49.396 17.2305 50.968V55H15.8745ZM13.2945 53.092C13.2945 53.632 13.6785 53.968 14.3025 53.968C15.1545 53.968 15.6705 53.5 15.6705 52.756V52.3C15.2745 52.24 14.9985 52.216 14.7105 52.216C13.7625 52.216 13.2945 52.516 13.2945 53.092ZM25.0638 51.796C25.0638 53.692 23.9478 55.12 22.2198 55.12C21.4638 55.12 20.8158 54.796 20.3358 54.172V57.316H18.6678V48.592H20.2038V49.528C20.6958 48.844 21.4038 48.472 22.2198 48.472C23.9478 48.472 25.0638 49.912 25.0638 51.796ZM23.3478 51.796C23.3478 50.596 22.6638 49.948 21.8478 49.948C21.0318 49.948 20.3478 50.584 20.3478 51.796C20.3478 53.008 21.0318 53.632 21.8478 53.632C22.6638 53.632 23.3478 53.02 23.3478 51.796ZM31.5447 52.948C31.5447 54.292 30.5247 55.12 28.7007 55.12C26.8767 55.12 25.8567 54.244 25.7247 52.816H27.3207C27.3327 53.476 27.8967 53.896 28.7247 53.896C29.3727 53.896 29.8647 53.692 29.8647 53.236C29.8647 52.828 29.6007 52.66 28.9887 52.54L27.8367 52.324C26.6847 52.12 25.9887 51.484 25.9887 50.488C25.9887 49.3 27.0087 48.472 28.6047 48.472C30.2127 48.472 31.3167 49.324 31.4367 50.704H29.8407C29.7807 50.08 29.3127 49.696 28.6047 49.696C27.9927 49.696 27.5847 49.924 27.5847 50.332C27.5847 50.716 27.8487 50.872 28.4247 50.98L29.6607 51.208C30.9087 51.448 31.5447 52.024 31.5447 52.948ZM36.5835 52.3V48.592H38.2395V55H36.7155V54.16C36.3675 54.724 35.6595 55.12 34.8435 55.12C33.5595 55.12 32.6235 54.34 32.6235 52.672V48.592H34.2915V52.348C34.2915 53.248 34.7355 53.644 35.4075 53.644C36.0075 53.644 36.5835 53.164 36.5835 52.3ZM41.4181 55H39.7381V46.384H41.4181V55ZM45.6979 55.108C43.7779 55.108 42.4939 53.776 42.4939 51.772C42.4939 49.864 43.8259 48.472 45.6739 48.472C47.7019 48.472 49.0459 50.116 48.7459 52.204H44.1979C44.3059 53.248 44.8099 53.824 45.6619 53.824C46.3939 53.824 46.8859 53.464 47.0779 52.828H48.7339C48.3739 54.28 47.2579 55.108 45.6979 55.108ZM45.6379 49.696C44.8579 49.696 44.3659 50.2 44.2219 51.148H46.9819C46.9339 50.26 46.4299 49.696 45.6379 49.696Z" fill="#D18F41"/>
</svg>
