<svg width="50" height="50" viewBox="0 0 50 50" fill="none" xmlns="http://www.w3.org/2000/svg">
<path d="M20.5 15.75C20.5 15.5511 20.579 15.3603 20.7197 15.2197C20.8603 15.079 21.0511 15 21.25 15H24.25C24.4489 15 24.6397 15.079 24.7803 15.2197C24.921 15.3603 25 15.5511 25 15.75C25 15.9489 24.921 16.1397 24.7803 16.2803C24.6397 16.421 24.4489 16.5 24.25 16.5H21.25C21.0511 16.5 20.8603 16.421 20.7197 16.2803C20.579 16.1397 20.5 15.9489 20.5 15.75ZM20.5 12.75C20.5 12.5511 20.579 12.3603 20.7197 12.2197C20.8603 12.079 21.0511 12 21.25 12H28.75C28.9489 12 29.1397 12.079 29.2803 12.2197C29.421 12.3603 29.5 12.5511 29.5 12.75C29.5 12.9489 29.421 13.1397 29.2803 13.2803C29.1397 13.421 28.9489 13.5 28.75 13.5H21.25C21.0511 13.5 20.8603 13.421 20.7197 13.2803C20.579 13.1397 20.5 12.9489 20.5 12.75ZM20.5 9.75C20.5 9.55109 20.579 9.36032 20.7197 9.21967C20.8603 9.07902 21.0511 9 21.25 9H28.75C28.9489 9 29.1397 9.07902 29.2803 9.21967C29.421 9.36032 29.5 9.55109 29.5 9.75C29.5 9.94891 29.421 10.1397 29.2803 10.2803C29.1397 10.421 28.9489 10.5 28.75 10.5H21.25C21.0511 10.5 20.8603 10.421 20.7197 10.2803C20.579 10.1397 20.5 9.94891 20.5 9.75ZM20.5 6.75C20.5 6.55109 20.579 6.36032 20.7197 6.21967C20.8603 6.07902 21.0511 6 21.25 6H28.75C28.9489 6 29.1397 6.07902 29.2803 6.21967C29.421 6.36032 29.5 6.55109 29.5 6.75C29.5 6.94891 29.421 7.13968 29.2803 7.28033C29.1397 7.42098 28.9489 7.5 28.75 7.5H21.25C21.0511 7.5 20.8603 7.42098 20.7197 7.28033C20.579 7.13968 20.5 6.94891 20.5 6.75Z" fill="#D18F41"/>
<path d="M17.5 0H32.5C33.2956 0 34.0587 0.316071 34.6213 0.87868C35.1839 1.44129 35.5 2.20435 35.5 3V21C35.5 21.7956 35.1839 22.5587 34.6213 23.1213C34.0587 23.6839 33.2956 24 32.5 24H17.5C16.7044 24 15.9413 23.6839 15.3787 23.1213C14.8161 22.5587 14.5 21.7956 14.5 21V19.5H16V21C16 21.3978 16.158 21.7794 16.4393 22.0607C16.7206 22.342 17.1022 22.5 17.5 22.5H32.5C32.8978 22.5 33.2794 22.342 33.5607 22.0607C33.842 21.7794 34 21.3978 34 21V3C34 2.60218 33.842 2.22064 33.5607 1.93934C33.2794 1.65804 32.8978 1.5 32.5 1.5H17.5C17.1022 1.5 16.7206 1.65804 16.4393 1.93934C16.158 2.22064 16 2.60218 16 3V4.5H14.5V3C14.5 2.20435 14.8161 1.44129 15.3787 0.87868C15.9413 0.316071 16.7044 0 17.5 0Z" fill="#D18F41"/>
<path d="M14.5 7.5V6.75C14.5 6.55109 14.579 6.36032 14.7197 6.21967C14.8603 6.07902 15.0511 6 15.25 6C15.4489 6 15.6397 6.07902 15.7803 6.21967C15.921 6.36032 16 6.55109 16 6.75V7.5H16.75C16.9489 7.5 17.1397 7.57902 17.2803 7.71967C17.421 7.86032 17.5 8.05109 17.5 8.25C17.5 8.44891 17.421 8.63968 17.2803 8.78033C17.1397 8.92098 16.9489 9 16.75 9H13.75C13.5511 9 13.3603 8.92098 13.2197 8.78033C13.079 8.63968 13 8.44891 13 8.25C13 8.05109 13.079 7.86032 13.2197 7.71967C13.3603 7.57902 13.5511 7.5 13.75 7.5H14.5ZM14.5 12V11.25C14.5 11.0511 14.579 10.8603 14.7197 10.7197C14.8603 10.579 15.0511 10.5 15.25 10.5C15.4489 10.5 15.6397 10.579 15.7803 10.7197C15.921 10.8603 16 11.0511 16 11.25V12H16.75C16.9489 12 17.1397 12.079 17.2803 12.2197C17.421 12.3603 17.5 12.5511 17.5 12.75C17.5 12.9489 17.421 13.1397 17.2803 13.2803C17.1397 13.421 16.9489 13.5 16.75 13.5H13.75C13.5511 13.5 13.3603 13.421 13.2197 13.2803C13.079 13.1397 13 12.9489 13 12.75C13 12.5511 13.079 12.3603 13.2197 12.2197C13.3603 12.079 13.5511 12 13.75 12H14.5ZM14.5 16.5V15.75C14.5 15.5511 14.579 15.3603 14.7197 15.2197C14.8603 15.079 15.0511 15 15.25 15C15.4489 15 15.6397 15.079 15.7803 15.2197C15.921 15.3603 16 15.5511 16 15.75V16.5H16.75C16.9489 16.5 17.1397 16.579 17.2803 16.7197C17.421 16.8603 17.5 17.0511 17.5 17.25C17.5 17.4489 17.421 17.6397 17.2803 17.7803C17.1397 17.921 16.9489 18 16.75 18H13.75C13.5511 18 13.3603 17.921 13.2197 17.7803C13.079 17.6397 13 17.4489 13 17.25C13 17.0511 13.079 16.8603 13.2197 16.7197C13.3603 16.579 13.5511 16.5 13.75 16.5H14.5Z" fill="#D18F41"/>
<path d="M9.92786 30.384V35.904C9.92786 37.836 8.77586 39.18 6.63986 39.18C4.53986 39.18 3.39986 37.836 3.37586 36H5.19986C5.22386 36.912 5.59586 37.548 6.63986 37.548C7.70786 37.548 8.09186 36.924 8.09186 35.952V30.384H9.92786ZM14.3201 39.12C12.4601 39.12 11.0681 37.656 11.0681 35.796C11.0681 33.924 12.4601 32.472 14.3201 32.472C16.1801 32.472 17.5721 33.924 17.5721 35.796C17.5721 37.656 16.1801 39.12 14.3201 39.12ZM14.3201 37.644C15.1481 37.644 15.8561 36.984 15.8561 35.796C15.8561 34.608 15.1481 33.96 14.3201 33.96C13.4921 33.96 12.7841 34.608 12.7841 35.796C12.7841 36.984 13.4921 37.644 14.3201 37.644ZM22.5366 36.3V32.592H24.1926V39H22.6686V38.16C22.3206 38.724 21.6126 39.12 20.7966 39.12C19.5126 39.12 18.5766 38.34 18.5766 36.672V32.592H20.2446V36.348C20.2446 37.248 20.6886 37.644 21.3606 37.644C21.9606 37.644 22.5366 37.164 22.5366 36.3ZM27.3593 35.892V39H25.6913V32.592H27.2273V33.828C27.6953 33.012 28.6913 32.52 29.7233 32.52V34.248C28.3073 34.14 27.3593 34.476 27.3593 35.892ZM32.2577 35.508V39H30.5897V32.592H32.1257V33.504C32.5937 32.868 33.2537 32.472 34.0937 32.472C35.3777 32.472 36.2657 33.312 36.2657 34.86V39H34.6097V35.424C34.6097 34.476 34.2377 33.948 33.4817 33.948C32.8217 33.948 32.2577 34.476 32.2577 35.508ZM41.519 39V38.208C41.099 38.808 40.463 39.12 39.587 39.12C38.255 39.12 37.367 38.34 37.367 37.14C37.367 35.892 38.375 35.22 40.247 35.22C40.607 35.22 40.919 35.244 41.315 35.292V34.908C41.315 34.188 40.907 33.768 40.211 33.768C39.491 33.768 39.059 34.188 38.999 34.908H37.499C37.595 33.432 38.663 32.472 40.211 32.472C41.891 32.472 42.875 33.396 42.875 34.968V39H41.519ZM38.939 37.092C38.939 37.632 39.323 37.968 39.947 37.968C40.799 37.968 41.315 37.5 41.315 36.756V36.3C40.919 36.24 40.643 36.216 40.355 36.216C39.407 36.216 38.939 36.516 38.939 37.092ZM45.9924 39H44.3124V30.384H45.9924V39Z" fill="#D18F41"/>
</svg>
