<svg width="46" height="50" viewBox="0 0 46 50" fill="none" xmlns="http://www.w3.org/2000/svg">
<path d="M31.0402 6.82006L25.2802 2.79006C23.7102 1.69006 21.3002 1.75006 19.7902 2.92006L14.7802 6.83006C13.7802 7.61006 12.9902 9.21006 12.9902 10.4701V17.3701C12.9902 19.9201 15.0602 22.0001 17.6102 22.0001H28.3902C30.9402 22.0001 33.0102 19.9301 33.0102 17.3801V10.6001C33.0102 9.25006 32.1402 7.59006 31.0402 6.82006ZM23.7502 18.0001C23.7502 18.4101 23.4102 18.7501 23.0002 18.7501C22.5902 18.7501 22.2502 18.4101 22.2502 18.0001V15.0001C22.2502 14.5901 22.5902 14.2501 23.0002 14.2501C23.4102 14.2501 23.7502 14.5901 23.7502 15.0001V18.0001Z" fill="#D18F41"/>
<path d="M9.06747 41H7.24347V32.384H9.06747V35.78H12.7995V32.384H14.6235V41H12.7995V37.352H9.06747V41ZM19.0838 41.12C17.2238 41.12 15.8318 39.656 15.8318 37.796C15.8318 35.924 17.2238 34.472 19.0838 34.472C20.9438 34.472 22.3358 35.924 22.3358 37.796C22.3358 39.656 20.9438 41.12 19.0838 41.12ZM19.0838 39.644C19.9118 39.644 20.6198 38.984 20.6198 37.796C20.6198 36.608 19.9118 35.96 19.0838 35.96C18.2558 35.96 17.5478 36.608 17.5478 37.796C17.5478 38.984 18.2558 39.644 19.0838 39.644ZM25.0683 41H23.4003V34.592H24.9363V35.504C25.4043 34.856 26.0043 34.472 26.8563 34.472C27.7323 34.472 28.4043 34.88 28.7283 35.612C29.2323 34.904 29.8803 34.472 30.8403 34.472C32.1363 34.472 33.0123 35.324 33.0123 36.86V41H31.3563V37.388C31.3563 36.488 30.9723 35.948 30.2403 35.948C29.5803 35.948 29.0403 36.464 29.0403 37.424V41H27.3843V37.388C27.3843 36.488 27.0003 35.948 26.2683 35.948C25.5963 35.948 25.0683 36.464 25.0683 37.424V41ZM37.2233 41.108C35.3033 41.108 34.0193 39.776 34.0193 37.772C34.0193 35.864 35.3513 34.472 37.1993 34.472C39.2273 34.472 40.5713 36.116 40.2713 38.204H35.7233C35.8313 39.248 36.3353 39.824 37.1873 39.824C37.9193 39.824 38.4113 39.464 38.6033 38.828H40.2593C39.8993 40.28 38.7833 41.108 37.2233 41.108ZM37.1633 35.696C36.3833 35.696 35.8913 36.2 35.7473 37.148H38.5073C38.4593 36.26 37.9553 35.696 37.1633 35.696Z" fill="#D18F41"/>
</svg>
