<svg width="51" height="50" viewBox="0 0 51 50" fill="none" xmlns="http://www.w3.org/2000/svg">
<path d="M34.5 9.41602V18C34.5 19.6569 33.1569 21 31.5 21H20.5" stroke="#D18F41" stroke-width="2" stroke-linecap="round" stroke-linejoin="round"/>
<path d="M17.8516 7.27628C17.8516 5.61943 19.1947 4.27628 20.8516 4.27628H28.8516C30.5085 4.27628 31.8516 5.61943 31.8516 7.27628V15.2763C31.8516 16.9332 30.5085 18.2763 28.8516 18.2763H20.8516C19.1947 18.2763 17.8516 16.9332 17.8516 15.2763V7.27628Z" fill="#D18F41" stroke="white" stroke-width="1.5" stroke-linecap="round" stroke-linejoin="round"/>
<path d="M17.8516 13.6511L21.5195 9.98324C21.91 9.59271 22.5431 9.59271 22.9337 9.98324L25.7266 12.7761M25.7266 12.7761L28.082 10.4207C28.4725 10.0302 29.1057 10.0302 29.4962 10.4207L31.8516 12.7761M25.7266 12.7761L27.6954 14.7449" stroke="white" stroke-width="1.5" stroke-linecap="round" stroke-linejoin="round"/>
<path d="M13.398 41L12.75 39.152H9.402L8.742 41H6.906L10.146 32.384H12.138L15.354 41H13.398ZM11.094 34.376L9.918 37.7H12.246L11.094 34.376ZM17.9396 41H16.2596V32.384H17.9396V41ZM25.8314 37.796C25.8314 39.668 24.7154 41.12 22.9874 41.12C22.1594 41.12 21.4634 40.748 20.9714 40.076V41H19.4354V32.384H21.1034V35.42C21.5714 34.796 22.2194 34.472 22.9874 34.472C24.7154 34.472 25.8314 35.9 25.8314 37.796ZM24.1154 37.796C24.1154 36.572 23.4314 35.948 22.6154 35.948C21.8114 35.948 21.1154 36.56 21.1154 37.772C21.1154 38.984 21.7874 39.632 22.6154 39.632C23.4314 39.632 24.1154 38.996 24.1154 37.796ZM30.8003 38.3V34.592H32.4563V41H30.9323V40.16C30.5843 40.724 29.8763 41.12 29.0603 41.12C27.7763 41.12 26.8403 40.34 26.8403 38.672V34.592H28.5083V38.348C28.5083 39.248 28.9523 39.644 29.6243 39.644C30.2243 39.644 30.8003 39.164 30.8003 38.3ZM35.6229 41H33.9549V34.592H35.4909V35.504C35.9589 34.856 36.5589 34.472 37.4109 34.472C38.2869 34.472 38.9589 34.88 39.2829 35.612C39.7869 34.904 40.4349 34.472 41.3949 34.472C42.6909 34.472 43.5669 35.324 43.5669 36.86V41H41.9109V37.388C41.9109 36.488 41.5269 35.948 40.7949 35.948C40.1349 35.948 39.5949 36.464 39.5949 37.424V41H37.9389V37.388C37.9389 36.488 37.5549 35.948 36.8229 35.948C36.1509 35.948 35.6229 36.464 35.6229 37.424V41Z" fill="#D18F41"/>
</svg>
