<svg width="25" height="24" viewBox="0 0 25 24" fill="none" xmlns="http://www.w3.org/2000/svg">
<g clip-path="url(#clip0_649_8350)">
<path d="M22.75 20.3957C22.75 18.1315 20.9408 14.9053 18.4167 14.1914M16.25 20.3957C16.25 17.5238 13.3402 13.8957 9.75 13.8957C6.15983 13.8957 3.25 17.5238 3.25 20.3957M16.25 10.104C17.112 10.104 17.9386 9.76159 18.5481 9.1521C19.1576 8.54261 19.5 7.71596 19.5 6.854C19.5 5.99205 19.1576 5.1654 18.5481 4.55591C17.9386 3.94641 17.112 3.604 16.25 3.604M13 6.854C13 7.71596 12.6576 8.54261 12.0481 9.1521C11.4386 9.76159 10.612 10.104 9.75 10.104C8.88805 10.104 8.0614 9.76159 7.4519 9.1521C6.84241 8.54261 6.5 7.71596 6.5 6.854C6.5 5.99205 6.84241 5.1654 7.4519 4.55591C8.0614 3.94641 8.88805 3.604 9.75 3.604C10.612 3.604 11.4386 3.94641 12.0481 4.55591C12.6576 5.1654 13 5.99205 13 6.854Z" stroke="white" stroke-width="1.5" stroke-linecap="round" stroke-linejoin="round"/>
</g>
<defs>
<clipPath id="clip0_649_8350">
<rect width="25" height="24" fill="white"/>
</clipPath>
</defs>
</svg>
