<svg width="22" height="22" viewBox="0 0 22 22" fill="none" xmlns="http://www.w3.org/2000/svg">
<path d="M16.79 21.7383H5.21C2.47 21.7383 0.25 19.5083 0.25 16.7683V9.35826C0.25 7.99826 1.09 6.28826 2.17 5.44826L7.56 1.24826C9.18 -0.0117447 11.77 -0.0717447 13.45 1.10826L19.63 5.43826C20.82 6.26826 21.75 8.04826 21.75 9.49826V16.7783C21.75 19.5083 19.53 21.7383 16.79 21.7383ZM8.48 2.42826L3.09 6.62826C2.38 7.18826 1.75 8.45826 1.75 9.35826V16.7683C1.75 18.6783 3.3 20.2383 5.21 20.2383H16.79C18.7 20.2383 20.25 18.6883 20.25 16.7783V9.49826C20.25 8.53826 19.56 7.20826 18.77 6.66826L12.59 2.33826C11.45 1.53826 9.57 1.57826 8.48 2.42826Z" fill="#868686"/>
<path d="M11 17.7383C10.59 17.7383 10.25 17.3983 10.25 16.9883V13.9883C10.25 13.5783 10.59 13.2383 11 13.2383C11.41 13.2383 11.75 13.5783 11.75 13.9883V16.9883C11.75 17.3983 11.41 17.7383 11 17.7383Z" fill="#868686"/>
</svg>
