<svg width="23" height="24" viewBox="0 0 23 24" fill="none" xmlns="http://www.w3.org/2000/svg">
<path d="M17.8563 17.0467L15.6283 16.3042L14.8285 14.7045C15.5491 13.9711 16.0494 13.0007 16.2181 11.9885L16.3178 11.3906H17.1709C17.9463 11.3906 18.5771 10.7598 18.5771 9.98438V7.03125C18.5771 3.15422 15.4229 0 11.5459 0C7.65893 0 4.51465 3.14517 4.51465 7.03125V9.98438C4.51465 10.5954 4.90657 11.1165 5.45215 11.31V11.8594C5.45215 12.6348 6.08299 13.2656 6.8584 13.2656H7.27005C7.47326 13.707 7.73627 14.1159 8.05634 14.4832C8.12271 14.5595 8.19195 14.6334 8.26287 14.7054L7.46346 16.3042L5.23545 17.0468C2.6449 17.9106 0.764648 20.6377 0.764648 23.5312C0.764648 23.7901 0.974508 24 1.2334 24H21.8584C22.1172 24 22.3271 23.7901 22.3271 23.5312C22.3271 20.6377 20.4469 17.9106 17.8563 17.0467ZM17.6396 9.98438C17.6396 10.2428 17.4294 10.4531 17.1709 10.4531H16.4555C16.5746 9.53016 16.6541 8.54798 16.686 7.58063C16.6869 7.55334 16.6877 7.52681 16.6885 7.5H17.6396V9.98438ZM5.9209 10.4531C5.66243 10.4531 5.45215 10.2428 5.45215 9.98438V7.5H6.40362C6.40516 7.54889 6.4068 7.59802 6.40863 7.64747C6.40868 7.64916 6.40877 7.6508 6.40882 7.65248C6.40882 7.65263 6.40882 7.65277 6.40882 7.65291C6.44163 8.59378 6.52001 9.55045 6.63645 10.4531H5.9209V10.4531ZM6.8584 12.3281C6.59993 12.3281 6.38965 12.1178 6.38965 11.8594V11.3906H6.77393L6.87368 11.9887C6.89271 12.1024 6.9161 12.2156 6.94315 12.3281H6.8584ZM6.39045 6.5625H5.46996C5.70738 3.42089 8.3292 0.9375 11.5459 0.9375C14.7483 0.9375 17.3816 3.42056 17.6218 6.5625H16.7014C16.6676 3.97373 14.5595 1.875 11.9655 1.875H11.1264C8.5324 1.875 6.42415 3.97373 6.39045 6.5625ZM11.1264 2.8125H11.9654C14.0659 2.8125 15.7659 4.53052 15.7646 6.62859C15.7646 6.77611 15.7635 6.90455 15.761 7.02141C15.761 7.02291 15.7609 7.02445 15.7609 7.026L15.1746 6.94223C13.5818 6.7148 12.0779 5.96283 10.9399 4.8248C10.8519 4.73691 10.7327 4.6875 10.6084 4.6875C9.34952 4.6875 8.14446 5.26106 7.34787 6.23006C7.54418 4.32136 9.15776 2.8125 11.1264 2.8125ZM7.91496 12.3281C7.6803 11.5475 7.4118 9.25064 7.35246 7.77877L7.98335 6.93755C8.56277 6.16523 9.46423 5.68537 10.4231 5.6303C11.6849 6.83105 13.3172 7.62398 15.0421 7.87027L15.7322 7.96889C15.686 8.94788 15.5918 9.93028 15.4567 10.8338C15.4567 10.8341 15.4566 10.8344 15.4566 10.8347C15.4136 11.1252 15.3798 11.3122 15.2934 11.8343C15.0451 13.3233 13.9341 14.6698 12.4674 15.0365C11.8638 15.1872 11.2279 15.1871 10.6246 15.0365C9.70882 14.8075 8.8691 14.1739 8.32718 13.2656H9.28277C9.47627 13.8112 9.99729 14.2031 10.6084 14.2031H11.5459C12.3229 14.2031 12.9521 13.5739 12.9521 12.7969C12.9521 12.0215 12.3213 11.3906 11.5459 11.3906H10.6084C9.9837 11.3906 9.47037 11.7941 9.28198 12.3281H7.91496ZM10.569 15.9851C10.8905 16.0529 11.2183 16.0875 11.5459 16.0875C11.8024 16.0875 12.0589 16.066 12.3124 16.0244L11.4842 16.9004L10.569 15.9851ZM10.8397 17.5818L9.35295 19.1541C8.94363 18.3706 8.59193 17.5553 8.30346 16.7205L8.86179 15.6038L10.8397 17.5818ZM14.1506 15.445L14.7882 16.7205C14.4993 17.5566 14.1475 18.3723 13.7386 19.1548L12.1473 17.5635L14.1506 15.445ZM10.1396 12.7969C10.1396 12.5381 10.3496 12.3281 10.6084 12.3281H11.5459C11.8044 12.3281 12.0146 12.5384 12.0146 12.7969C12.0146 13.0557 11.8047 13.2656 11.5459 13.2656H10.6084C10.3499 13.2656 10.1396 13.0553 10.1396 12.7969ZM1.7209 23.0625C1.90666 20.7404 3.45209 18.6297 5.53193 17.9361L7.50509 17.2785C7.86659 18.2782 8.31443 19.2497 8.83929 20.1726C8.84018 20.1742 8.84102 20.1758 8.84191 20.1773L8.84196 20.1774C9.22545 20.8519 9.65707 21.511 10.125 22.1368L10.7017 23.0625H1.7209ZM11.5459 22.6447L10.9102 21.624C10.9031 21.6126 10.8955 21.6015 10.8874 21.5907C10.5078 21.0844 10.1537 20.5548 9.83121 20.0128L11.5029 18.245L13.2644 20.0064C12.9397 20.5524 12.5844 21.0841 12.2045 21.5906C12.1815 21.6212 12.2141 21.573 11.5459 22.6447ZM12.3901 23.0625L12.9667 22.1368C13.4367 21.5087 13.8715 20.8443 14.2588 20.1619C14.2611 20.1577 14.2633 20.1535 14.2657 20.1494C14.266 20.1489 14.2662 20.1484 14.2665 20.1479C14.7847 19.2338 15.2279 18.2707 15.5867 17.2785L17.5598 17.9361C19.6397 18.6297 21.1851 20.7404 21.3709 23.0625H12.3901Z" fill="white"/>
</svg>
