<svg width="23" height="22" viewBox="0 0 23 22" fill="none" xmlns="http://www.w3.org/2000/svg">
<path d="M11.7158 21.75C5.78582 21.75 0.96582 16.93 0.96582 11C0.96582 5.07 5.78582 0.25 11.7158 0.25C17.6458 0.25 22.4658 5.07 22.4658 11C22.4658 16.93 17.6458 21.75 11.7158 21.75ZM11.7158 1.75C6.61582 1.75 2.46582 5.9 2.46582 11C2.46582 16.1 6.61582 20.25 11.7158 20.25C16.8158 20.25 20.9658 16.1 20.9658 11C20.9658 5.9 16.8158 1.75 11.7158 1.75Z" fill="white"/>
<path d="M11.7158 12.75C11.3058 12.75 10.9658 12.41 10.9658 12V7C10.9658 6.59 11.3058 6.25 11.7158 6.25C12.1258 6.25 12.4658 6.59 12.4658 7V12C12.4658 12.41 12.1258 12.75 11.7158 12.75Z" fill="white"/>
<path d="M11.7158 15.9999C11.5858 15.9999 11.4558 15.9699 11.3358 15.9199C11.2158 15.8699 11.1058 15.7999 11.0058 15.7099C10.9158 15.6099 10.8458 15.5099 10.7958 15.3799C10.7458 15.2599 10.7158 15.1299 10.7158 14.9999C10.7158 14.8699 10.7458 14.7399 10.7958 14.6199C10.8458 14.4999 10.9158 14.3899 11.0058 14.2899C11.1058 14.1999 11.2158 14.1299 11.3358 14.0799C11.5758 13.9799 11.8558 13.9799 12.0958 14.0799C12.2158 14.1299 12.3258 14.1999 12.4258 14.2899C12.5158 14.3899 12.5858 14.4999 12.6358 14.6199C12.6858 14.7399 12.7158 14.8699 12.7158 14.9999C12.7158 15.1299 12.6858 15.2599 12.6358 15.3799C12.5858 15.5099 12.5158 15.6099 12.4258 15.7099C12.3258 15.7999 12.2158 15.8699 12.0958 15.9199C11.9758 15.9699 11.8458 15.9999 11.7158 15.9999Z" fill="white"/>
</svg>
