<svg width="25" height="24" viewBox="0 0 25 24" fill="none" xmlns="http://www.w3.org/2000/svg">
<path d="M8.54289 15.0429C8.35536 15.2304 8.25 15.4848 8.25 15.75C8.25 16.0152 8.35536 16.2696 8.54289 16.4571C8.73043 16.6446 8.98478 16.75 9.25 16.75H12.25C12.5152 16.75 12.7696 16.6446 12.9571 16.4571C13.1446 16.2696 13.25 16.0152 13.25 15.75C13.25 15.4848 13.1446 15.2304 12.9571 15.0429C12.7696 14.8554 12.5152 14.75 12.25 14.75H9.25C8.98478 14.75 8.73043 14.8554 8.54289 15.0429ZM8.54289 12.0429C8.35536 12.2304 8.25 12.4848 8.25 12.75C8.25 13.0152 8.35536 13.2696 8.54289 13.4571C8.73043 13.6446 8.98478 13.75 9.25 13.75H16.75C17.0152 13.75 17.2696 13.6446 17.4571 13.4571C17.6446 13.2696 17.75 13.0152 17.75 12.75C17.75 12.4848 17.6446 12.2304 17.4571 12.0429C17.2696 11.8554 17.0152 11.75 16.75 11.75H9.25C8.98478 11.75 8.73043 11.8554 8.54289 12.0429ZM8.54289 9.04289C8.35536 9.23043 8.25 9.48478 8.25 9.75C8.25 10.0152 8.35536 10.2696 8.54289 10.4571C8.73043 10.6446 8.98478 10.75 9.25 10.75H16.75C17.0152 10.75 17.2696 10.6446 17.4571 10.4571C17.6446 10.2696 17.75 10.0152 17.75 9.75C17.75 9.48478 17.6446 9.23043 17.4571 9.04289C17.2696 8.85536 17.0152 8.75 16.75 8.75H9.25C8.98478 8.75 8.73043 8.85536 8.54289 9.04289ZM8.54289 6.04289C8.35536 6.23043 8.25 6.48478 8.25 6.75C8.25 7.01522 8.35536 7.26957 8.54289 7.45711C8.73043 7.64464 8.98478 7.75 9.25 7.75H16.75C17.0152 7.75 17.2696 7.64464 17.4571 7.45711C17.6446 7.26957 17.75 7.01522 17.75 6.75C17.75 6.48478 17.6446 6.23043 17.4571 6.04289C17.2696 5.85536 17.0152 5.75 16.75 5.75H9.25C8.98478 5.75 8.73043 5.85536 8.54289 6.04289Z" stroke="#868686" stroke-width="0.5"/>
<path d="M5.5 0H20.5C21.2956 0 22.0587 0.316071 22.6213 0.87868C23.1839 1.44129 23.5 2.20435 23.5 3V21C23.5 21.7956 23.1839 22.5587 22.6213 23.1213C22.0587 23.6839 21.2956 24 20.5 24H5.5C4.70435 24 3.94129 23.6839 3.37868 23.1213C2.81607 22.5587 2.5 21.7956 2.5 21V19.5H4V21C4 21.3978 4.15804 21.7794 4.43934 22.0607C4.72064 22.342 5.10218 22.5 5.5 22.5H20.5C20.8978 22.5 21.2794 22.342 21.5607 22.0607C21.842 21.7794 22 21.3978 22 21V3C22 2.60218 21.842 2.22064 21.5607 1.93934C21.2794 1.65804 20.8978 1.5 20.5 1.5H5.5C5.10218 1.5 4.72064 1.65804 4.43934 1.93934C4.15804 2.22064 4 2.60218 4 3V4.5H2.5V3C2.5 2.20435 2.81607 1.44129 3.37868 0.87868C3.94129 0.316071 4.70435 0 5.5 0Z" fill="#868686"/>
<path d="M4.25 7.25V6.75C4.25 6.48478 4.14464 6.23043 3.95711 6.04289C3.76957 5.85536 3.51522 5.75 3.25 5.75C2.98478 5.75 2.73043 5.85536 2.54289 6.04289C2.35536 6.23043 2.25 6.48478 2.25 6.75V7.25H1.75C1.48478 7.25 1.23043 7.35536 1.04289 7.54289C0.855357 7.73043 0.75 7.98478 0.75 8.25C0.75 8.51522 0.855357 8.76957 1.04289 8.95711C1.23043 9.14464 1.48478 9.25 1.75 9.25H4.75C5.01522 9.25 5.26957 9.14464 5.45711 8.95711C5.64464 8.76957 5.75 8.51522 5.75 8.25C5.75 7.98478 5.64464 7.73043 5.45711 7.54289C5.26957 7.35536 5.01522 7.25 4.75 7.25H4.25ZM2.25 11.25V11.75H1.75C1.48478 11.75 1.23043 11.8554 1.04289 12.0429C0.855357 12.2304 0.75 12.4848 0.75 12.75C0.75 13.0152 0.855357 13.2696 1.04289 13.4571C1.23043 13.6446 1.48478 13.75 1.75 13.75H4.75C5.01522 13.75 5.26957 13.6446 5.45711 13.4571C5.64464 13.2696 5.75 13.0152 5.75 12.75C5.75 12.4848 5.64464 12.2304 5.45711 12.0429C5.26957 11.8554 5.01522 11.75 4.75 11.75H4.25V11.25C4.25 10.9848 4.14464 10.7304 3.95711 10.5429C3.76957 10.3554 3.51522 10.25 3.25 10.25C2.98478 10.25 2.73043 10.3554 2.54289 10.5429C2.35536 10.7304 2.25 10.9848 2.25 11.25ZM2.25 15.75V16.25H1.75C1.48478 16.25 1.23043 16.3554 1.04289 16.5429C0.855357 16.7304 0.75 16.9848 0.75 17.25C0.75 17.5152 0.855357 17.7696 1.04289 17.9571C1.23043 18.1446 1.48478 18.25 1.75 18.25H4.75C5.01522 18.25 5.26957 18.1446 5.45711 17.9571C5.64464 17.7696 5.75 17.5152 5.75 17.25C5.75 16.9848 5.64464 16.7304 5.45711 16.5429C5.26957 16.3554 5.01522 16.25 4.75 16.25H4.25V15.75C4.25 15.4848 4.14464 15.2304 3.95711 15.0429C3.76957 14.8554 3.51522 14.75 3.25 14.75C2.98478 14.75 2.73043 14.8554 2.54289 15.0429C2.35536 15.2304 2.25 15.4848 2.25 15.75Z" stroke="#868686" stroke-width="0.5"/>
</svg>
