<svg width="25" height="24" viewBox="0 0 25 24" fill="none" xmlns="http://www.w3.org/2000/svg">
<path d="M4.53919 13.4163C4.80036 13.4163 5.00123 13.3459 5.25238 13.1651L7.87403 11.2265C8.09501 11.0658 8.21552 10.8247 8.21552 10.5635C8.21552 10.0915 7.84391 9.74995 7.42202 9.74995C7.23118 9.74995 7.06043 9.80018 6.90975 9.92069L5.56378 10.9653C6.06598 6.87719 9.53141 3.73319 13.7602 3.73319C18.3506 3.73319 22.0269 7.41959 22.037 11.9999C22.0471 16.5903 18.3606 20.2767 13.7602 20.2767C11.1988 20.2767 8.97893 19.1115 7.46218 17.3537C7.24121 17.1026 6.98003 16.9921 6.72893 16.9921C6.31712 16.9921 5.93539 17.3236 5.93539 17.7857C5.93539 18.0066 6.03585 18.2578 6.25682 18.529C8.01465 20.6183 10.7669 21.9743 13.7602 21.9743C19.2244 21.9743 23.7346 17.4542 23.7346 11.9999C23.7346 6.55572 19.2144 2.02563 13.7602 2.02563C8.70773 2.02563 4.44881 5.92294 3.85618 10.8448L2.78141 9.31804C2.62065 9.08699 2.37962 8.93635 2.08832 8.93635C1.62623 8.93635 1.26465 9.26781 1.26465 9.72985C1.26465 9.93076 1.32491 10.1216 1.44546 10.2723L3.55481 12.8738C3.87623 13.2756 4.13741 13.4163 4.53919 13.4163ZM11.2189 15.2946C11.2189 15.7466 11.7211 15.9576 12.1631 15.6964L17.547 12.5122C17.9387 12.2812 17.9287 11.7287 17.547 11.4977L12.1631 8.31355C11.7512 8.07248 11.2189 8.25329 11.2189 8.71533V15.2946Z" fill="#868686"/>
</svg>
