<svg width="24" height="24" viewBox="0 0 24 24" fill="none" xmlns="http://www.w3.org/2000/svg">
<path d="M12 16.25C9.38 16.25 7.25 14.12 7.25 11.5V6C7.25 3.38 9.38 1.25 12 1.25C14.62 1.25 16.75 3.38 16.75 6V11.5C16.75 14.12 14.62 16.25 12 16.25ZM12 2.75C10.21 2.75 8.75 4.21 8.75 6V11.5C8.75 13.29 10.21 14.75 12 14.75C13.79 14.75 15.25 13.29 15.25 11.5V6C15.25 4.21 13.79 2.75 12 2.75Z" fill="#D18F41"/>
<path d="M11.9996 19.75C7.36961 19.75 3.59961 15.98 3.59961 11.35V9.65002C3.59961 9.24002 3.93961 8.90002 4.34961 8.90002C4.75961 8.90002 5.09961 9.24002 5.09961 9.65002V11.35C5.09961 15.15 8.19961 18.25 11.9996 18.25C15.7996 18.25 18.8996 15.15 18.8996 11.35V9.65002C18.8996 9.24002 19.2396 8.90002 19.6496 8.90002C20.0596 8.90002 20.3996 9.24002 20.3996 9.65002V11.35C20.3996 15.98 16.6296 19.75 11.9996 19.75Z" fill="#D18F41"/>
<path d="M13.3899 7.17995C13.3099 7.17995 13.2199 7.16995 13.1299 7.13995C12.3999 6.86995 11.5999 6.86995 10.8699 7.13995C10.4799 7.27995 10.0499 7.07995 9.90988 6.68995C9.76988 6.29995 9.96988 5.86995 10.3599 5.72995C11.4199 5.34995 12.5899 5.34995 13.6499 5.72995C14.0399 5.86995 14.2399 6.29995 14.0999 6.68995C13.9799 6.98995 13.6899 7.17995 13.3899 7.17995Z" fill="#D18F41"/>
<path d="M12.8001 9.29995C12.7301 9.29995 12.6701 9.28995 12.6001 9.26995C12.2001 9.15995 11.7901 9.15995 11.3901 9.26995C10.9901 9.37995 10.5801 9.13995 10.4701 8.73995C10.3601 8.34995 10.6001 7.93995 11.0001 7.82995C11.6501 7.64995 12.3501 7.64995 13.0001 7.82995C13.4001 7.93995 13.6401 8.34995 13.5301 8.74995C13.4401 9.07995 13.1301 9.29995 12.8001 9.29995Z" fill="#D18F41"/>
<path d="M12 22.75C11.59 22.75 11.25 22.41 11.25 22V19C11.25 18.59 11.59 18.25 12 18.25C12.41 18.25 12.75 18.59 12.75 19V22C12.75 22.41 12.41 22.75 12 22.75Z" fill="#D18F41"/>
</svg>
