<svg width="32" height="33" viewBox="0 0 32 33" fill="none" xmlns="http://www.w3.org/2000/svg">
<path d="M15.9603 31.2633C8.06695 31.2633 1.62695 24.8367 1.62695 16.93C1.62695 9.02335 8.06695 2.59668 15.9603 2.59668C23.8536 2.59668 30.2936 9.02335 30.2936 16.93C30.2936 24.8367 23.867 31.2633 15.9603 31.2633ZM15.9603 4.59668C9.16029 4.59668 3.62695 10.13 3.62695 16.93C3.62695 23.73 9.16029 29.2633 15.9603 29.2633C22.7603 29.2633 28.2936 23.73 28.2936 16.93C28.2936 10.13 22.7603 4.59668 15.9603 4.59668Z" fill="#D18F41"/>
<path d="M13.346 22.1967H11.6127C10.386 22.1967 9.66602 21.49 9.66602 20.3033V13.5567C9.66602 12.37 10.3993 11.6633 11.6127 11.6633H13.3327C14.5593 11.6633 15.2793 12.37 15.2793 13.5567V20.3033C15.2927 21.49 14.5593 22.1967 13.346 22.1967ZM11.666 20.1967H13.2927V13.6633H11.6793L11.666 20.1967Z" fill="#D18F41"/>
<path d="M20.3874 22.1967H18.6674C17.4407 22.1967 16.7207 21.49 16.7207 20.3033V13.5567C16.7207 12.37 17.454 11.6633 18.6674 11.6633H20.3874C21.614 11.6633 22.334 12.37 22.334 13.5567V20.3033C22.334 21.49 21.6007 22.1967 20.3874 22.1967ZM18.7074 20.1967H20.334V13.6633H18.7207L18.7074 20.1967Z" fill="#D18F41"/>
</svg>
