<svg width="25" height="24" viewBox="0 0 25 24" fill="none" xmlns="http://www.w3.org/2000/svg">
<path d="M12.7055 10.87C12.6055 10.86 12.4855 10.86 12.3755 10.87C9.99547 10.79 8.10547 8.84 8.10547 6.44C8.10547 3.99 10.0855 2 12.5455 2C14.9955 2 16.9855 3.99 16.9855 6.44C16.9755 8.84 15.0855 10.79 12.7055 10.87Z" stroke="white" stroke-width="1.5" stroke-linecap="round" stroke-linejoin="round"/>
<path d="M7.70563 14.56C5.28562 16.18 5.28562 18.82 7.70563 20.43C10.4556 22.27 14.9656 22.27 17.7156 20.43C20.1356 18.81 20.1356 16.17 17.7156 14.56C14.9756 12.73 10.4656 12.73 7.70563 14.56Z" stroke="white" stroke-width="1.5" stroke-linecap="round" stroke-linejoin="round"/>
</svg>
