<svg width="24" height="25" viewBox="0 0 24 25" fill="none" xmlns="http://www.w3.org/2000/svg">
<path d="M19.1701 4.00866C19.4628 3.72317 19.9213 3.72321 20.2043 4.00866C20.497 4.29415 20.497 4.76611 20.2043 5.05163L18.4289 6.84362C19.8437 8.14317 21.0439 9.89595 21.9416 12.0028C22.0196 12.1898 22.0196 12.4067 21.9416 12.5839C19.8535 17.4866 16.1353 20.4198 11.9982 20.4198H11.9885C10.1054 20.4197 8.30047 19.7999 6.71014 18.6678L4.81756 20.578C4.6712 20.7257 4.48538 20.7948 4.29999 20.7948C4.11477 20.7948 3.91995 20.7254 3.78338 20.578C3.53945 20.3319 3.50035 19.9377 3.69549 19.6522L3.72479 19.6132L18.1555 5.05163C18.1749 5.03201 18.1945 5.01265 18.2043 4.99303C18.2238 4.97334 18.2434 4.95315 18.2531 4.93346L19.1701 4.00866ZM12.0012 4.17956C13.3965 4.17956 14.7532 4.51431 16.0021 5.1444L12.7424 8.43249C12.5083 8.39315 12.2547 8.36413 12.0012 8.36413C9.84491 8.36419 8.09797 10.126 8.09784 12.3016C8.09784 12.5574 8.12721 12.8135 8.1662 13.0497L4.55682 16.6932C3.58117 15.5513 2.73201 14.1726 2.05878 12.5878C1.98072 12.4106 1.98074 12.1937 2.05878 12.0067C4.14684 7.1039 7.86407 4.17961 11.9914 4.17956H12.0012ZM14.1555 11.1561C14.331 11.4907 14.4279 11.8845 14.4279 12.2977C14.4279 13.6465 13.335 14.7499 11.9982 14.7499C11.5886 14.7498 11.198 14.6507 10.8664 14.4735L9.80292 15.5467C10.4273 15.97 11.1885 16.2263 11.9982 16.2264C14.1449 16.2264 15.8918 14.4636 15.8918 12.2977C15.8917 11.4808 15.6384 10.7129 15.2189 10.0829L14.1555 11.1561Z" fill="#9CA3AF"/>
</svg>
