<svg width="20" height="17" viewBox="0 0 20 17" fill="none" xmlns="http://www.w3.org/2000/svg">
<path d="M19.3337 8.31982C19.3337 8.7628 19.0045 9.1289 18.5775 9.18684L18.4587 9.19482L0.958719 9.19482C0.475471 9.19482 0.0837193 8.80307 0.0837193 8.31982C0.0837193 7.87685 0.412899 7.51075 0.839989 7.45281L0.958719 7.44482L18.4587 7.44482C18.942 7.44482 19.3337 7.83657 19.3337 8.31982Z" fill="white"/>
<path d="M8.6339 14.729C8.97634 15.07 8.97754 15.624 8.63657 15.9664C8.32659 16.2777 7.84054 16.307 7.49745 16.0536L7.39913 15.9691L0.340797 8.94109C0.028554 8.63019 0.000149727 8.14239 0.255596 7.7993L0.340746 7.70104L7.39908 0.671872C7.7415 0.330871 8.29551 0.332019 8.63651 0.674434C8.94651 0.985721 8.97375 1.47189 8.71888 1.81391L8.63395 1.91187L2.19858 8.32139L8.6339 14.729Z" fill="white"/>
</svg>
