<svg width="25" height="24" viewBox="0 0 25 24" fill="none" xmlns="http://www.w3.org/2000/svg">
<path fill-rule="evenodd" clip-rule="evenodd" d="M17.4394 3C18.7804 3 20.0704 3.53 21.0194 4.481C21.9694 5.43 22.5004 6.71 22.5004 8.05V15.95C22.5004 18.74 20.2304 21 17.4394 21H7.56043C4.76943 21 2.50043 18.74 2.50043 15.95V8.05C2.50043 5.26 4.75943 3 7.56043 3H17.4394ZM19.0304 9.54L19.1104 9.46C19.3494 9.17 19.3494 8.75 19.0994 8.46C18.9604 8.311 18.7694 8.22 18.5704 8.2C18.3604 8.189 18.1604 8.26 18.0094 8.4L13.5004 12C12.9204 12.481 12.0894 12.481 11.5004 12L7.00043 8.4C6.68943 8.17 6.25943 8.2 6.00043 8.47C5.73043 8.74 5.70043 9.17 5.92943 9.47L6.06043 9.6L10.6104 13.15C11.1704 13.59 11.8494 13.83 12.5604 13.83C13.2694 13.83 13.9604 13.59 14.5194 13.15L19.0304 9.54Z" fill="white"/>
</svg>
