<svg width="24" height="24" viewBox="0 0 24 24" fill="none" xmlns="http://www.w3.org/2000/svg">
<g clip-path="url(#clip0_24_167)">
<path d="M23.5078 12.2245C23.5078 11.2412 23.4295 10.5237 23.2598 9.7796H12.2295V14.2176H18.7041C18.5736 15.3205 17.8687 16.9814 16.3022 18.0975L16.2802 18.2461L19.7678 20.9963L20.0095 21.0209C22.2285 18.9347 23.5078 15.8653 23.5078 12.2245Z" fill="white"/>
<path d="M12.2295 23.9176C15.4015 23.9176 18.0644 22.8545 20.0095 21.0209L16.3022 18.0976C15.3101 18.8018 13.9786 19.2934 12.2295 19.2934C9.12274 19.2934 6.48592 17.2074 5.54596 14.324L5.40819 14.3359L1.78174 17.1927L1.73431 17.3269C3.66624 21.2334 7.63456 23.9176 12.2295 23.9176Z" fill="white"/>
<path d="M5.54609 14.324C5.29808 13.5799 5.15454 12.7826 5.15454 11.9588C5.15454 11.1349 5.29808 10.3377 5.53304 9.5936L5.52647 9.43513L1.85458 6.53241L1.73444 6.59058C0.938206 8.21168 0.481323 10.0321 0.481323 11.9588C0.481323 13.8855 0.938206 15.7058 1.73444 17.3269L5.54609 14.324Z" fill="white"/>
<path d="M12.2295 4.62403C14.4355 4.62403 15.9236 5.59401 16.7721 6.40461L20.0877 3.10928C18.0514 1.1826 15.4015 0 12.2295 0C7.63455 0 3.66623 2.68406 1.73431 6.59056L5.53291 9.59359C6.48591 6.7102 9.12273 4.62403 12.2295 4.62403Z" fill="white"/>
</g>
<defs>
<clipPath id="clip0_24_167">
<rect width="23.04" height="24" fill="white" transform="translate(0.47998)"/>
</clipPath>
</defs>
</svg>
