<svg width="41" height="40" viewBox="0 0 41 40" fill="none" xmlns="http://www.w3.org/2000/svg">
<circle cx="20.832" cy="20" r="20" fill="url(#paint0_linear_533_4016)"/>
<path d="M19.9997 31.7387C19.0298 32.2987 18.2249 32.3246 17.6102 32.1599C16.4081 31.8378 14.9362 30.5284 14.6659 26.1002L14.5543 24.167C14.5346 23.9128 14.2946 23.4971 14.0843 23.353L12.4659 22.2897C8.75751 19.8466 8.36311 17.9035 8.69021 16.71C9.00365 15.5129 10.3168 14.0273 14.7412 13.7707L24.2944 13.1973C26.6691 13.0503 28.4223 13.747 29.2323 15.15C30.0423 16.5529 29.7691 18.4197 28.4631 20.3977L23.1899 28.3842C21.9948 30.1943 20.9177 31.2087 19.9997 31.7387ZM10.9997 16.1503C10.5321 16.4203 10.2334 16.7429 10.1382 17.098C9.866 18.0866 11.0521 19.561 13.2864 21.0308L14.9098 22.1027C15.5119 22.5056 16.0019 23.3543 16.0498 24.0773L16.1614 26.0105C16.3221 28.6889 17.001 30.4448 17.9932 30.7033C18.9817 30.9755 20.4562 29.7893 21.9347 27.5501L27.2078 19.5635C28.1775 18.103 28.4333 16.766 27.9283 15.8913C27.4233 15.0166 26.1288 14.5746 24.3792 14.6841L14.831 15.2662C13.1346 15.368 11.8052 15.6853 10.9997 16.1503Z" fill="white"/>
<path d="M20.203 21.2295L15.5265 23.9295C15.1714 24.1345 14.707 24.0101 14.502 23.655C14.297 23.2999 14.4214 22.8355 14.7765 22.6305L19.453 19.9305C19.8081 19.7255 20.2725 19.8499 20.4775 20.205C20.6825 20.5601 20.5581 21.0245 20.203 21.2295Z" fill="white"/>
<defs>
<linearGradient id="paint0_linear_533_4016" x1="21.7158" y1="8.68322e-09" x2="22.1876" y2="39.995" gradientUnits="userSpaceOnUse">
<stop stop-color="#0A3739"/>
<stop offset="1" stop-color="#167478"/>
</linearGradient>
</defs>
</svg>
