<svg width="160" height="160" viewBox="0 0 160 160" fill="none" xmlns="http://www.w3.org/2000/svg">
<circle cx="80" cy="80" r="80" fill="url(#paint0_linear_2447_4235)"/>
<path d="M81.4508 126.504C77.4094 128.837 74.0874 129 71.5636 128.379C66.6282 127.164 60.6509 121.978 59.8557 104.1L59.535 96.2947C59.4719 95.2688 58.5119 93.606 57.655 93.0384L51.0557 88.858C35.9349 79.2514 34.4482 71.4264 35.8836 66.5793C37.2629 61.7183 42.7868 55.6193 61.0562 54.2629L100.504 51.2559C110.31 50.4903 117.492 53.1797 120.732 58.7915C123.972 64.4034 122.71 71.9678 117.181 80.0564L94.8523 112.716C89.7919 120.118 85.2758 124.296 81.4508 126.504ZM45.4508 64.1502C43.5023 65.2752 42.2467 66.6005 41.8285 68.0429C40.6344 72.0579 45.4208 77.9316 54.531 83.7108L61.1503 87.9258C63.605 89.5108 65.565 92.9056 65.7103 95.824L66.031 103.629C66.5008 114.443 69.1744 121.491 73.2486 122.464C77.3066 123.493 83.4744 118.592 89.7347 109.435L112.063 76.7757C116.168 70.8028 117.32 65.3807 115.3 61.8819C113.28 58.3832 107.972 56.6901 100.747 57.259L61.3186 60.3006C54.3137 60.8345 48.8067 62.2127 45.4508 64.1502Z" fill="white"/>
<path d="M83.0454 84.0146L63.5598 95.2646C62.0804 96.1188 60.1735 95.6493 59.3535 94.2291C58.5335 92.8088 59.0804 90.9226 60.5598 90.0685L80.0454 78.8185C81.5249 77.9643 83.4317 78.4338 84.2517 79.8541C85.0717 81.2743 84.5249 83.1605 83.0454 84.0146Z" fill="white"/>
<defs>
<linearGradient id="paint0_linear_2447_4235" x1="83.5349" y1="3.47329e-08" x2="85.4222" y2="159.98" gradientUnits="userSpaceOnUse">
<stop stop-color="#0A3739"/>
<stop offset="1" stop-color="#167478"/>
</linearGradient>
</defs>
</svg>
