<svg width="25" height="24" viewBox="0 0 25 24" fill="none" xmlns="http://www.w3.org/2000/svg">
<path d="M12.7109 15C14.3678 15 15.7109 13.6569 15.7109 12C15.7109 10.3431 14.3678 9 12.7109 9C11.0541 9 9.71094 10.3431 9.71094 12C9.71094 13.6569 11.0541 15 12.7109 15Z" stroke="white" stroke-width="1.5" stroke-miterlimit="10" stroke-linecap="round" stroke-linejoin="round"/>
<path d="M2.71094 12.8799V11.1199C2.71094 10.0799 3.56094 9.21994 4.61094 9.21994C6.42094 9.21994 7.16094 7.93994 6.25094 6.36994C5.73094 5.46994 6.04094 4.29994 6.95094 3.77994L8.68094 2.78994C9.47094 2.31994 10.4909 2.59994 10.9609 3.38994L11.0709 3.57994C11.9709 5.14994 13.4509 5.14994 14.3609 3.57994L14.4709 3.38994C14.9409 2.59994 15.9609 2.31994 16.7509 2.78994L18.4809 3.77994C19.3909 4.29994 19.7009 5.46994 19.1809 6.36994C18.2709 7.93994 19.0109 9.21994 20.8209 9.21994C21.8609 9.21994 22.7209 10.0699 22.7209 11.1199V12.8799C22.7209 13.9199 21.8709 14.7799 20.8209 14.7799C19.0109 14.7799 18.2709 16.0599 19.1809 17.6299C19.7009 18.5399 19.3909 19.6999 18.4809 20.2199L16.7509 21.2099C15.9609 21.6799 14.9409 21.3999 14.4709 20.6099L14.3609 20.4199C13.4609 18.8499 11.9809 18.8499 11.0709 20.4199L10.9609 20.6099C10.4909 21.3999 9.47094 21.6799 8.68094 21.2099L6.95094 20.2199C6.04094 19.6999 5.73094 18.5299 6.25094 17.6299C7.16094 16.0599 6.42094 14.7799 4.61094 14.7799C3.56094 14.7799 2.71094 13.9199 2.71094 12.8799Z" stroke="white" stroke-width="1.5" stroke-miterlimit="10" stroke-linecap="round" stroke-linejoin="round"/>
</svg>
