<svg width="26" height="24" viewBox="0 0 26 24" fill="none" xmlns="http://www.w3.org/2000/svg">
<g clip-path="url(#clip0_649_8350)">
<path d="M5.77734 19.0625H3.15234C2.2218 19.0625 1.46484 18.3055 1.46484 17.375V5.375C1.46484 4.44446 2.2218 3.6875 3.15234 3.6875H5.77734C6.08807 3.6875 6.33984 3.93927 6.33984 4.25C6.33984 4.56073 6.08807 4.8125 5.77734 4.8125H3.15234C2.84216 4.8125 2.58984 5.06482 2.58984 5.375V17.375C2.58984 17.6852 2.84216 17.9375 3.15234 17.9375H5.77734C6.08807 17.9375 6.33984 18.1893 6.33984 18.5C6.33984 18.8107 6.08807 19.0625 5.77734 19.0625Z" fill="white"/>
<path d="M20.0273 14.7875C19.7166 14.7875 19.4648 14.5358 19.4648 14.225V5.375C19.4648 5.06482 19.2125 4.8125 18.9023 4.8125H16.2773C15.9666 4.8125 15.7148 4.56073 15.7148 4.25C15.7148 3.93927 15.9666 3.6875 16.2773 3.6875H18.9023C19.8329 3.6875 20.5898 4.44446 20.5898 5.375V14.225C20.5898 14.5358 20.3381 14.7875 20.0273 14.7875Z" fill="white"/>
<path d="M11.4023 20.9375H6.90234C5.9718 20.9375 5.21484 20.1805 5.21484 19.25V3.5C5.21484 2.56946 5.9718 1.8125 6.90234 1.8125H15.1523C16.0829 1.8125 16.8398 2.56946 16.8398 3.5V13.8837C16.8398 14.1945 16.5881 14.4462 16.2773 14.4462C15.9666 14.4462 15.7148 14.1945 15.7148 13.8837V3.5C15.7148 3.18982 15.4625 2.9375 15.1523 2.9375H6.90234C6.59216 2.9375 6.33984 3.18982 6.33984 3.5V19.25C6.33984 19.5602 6.59216 19.8125 6.90234 19.8125H11.4023C11.7131 19.8125 11.9648 20.0643 11.9648 20.375C11.9648 20.6857 11.7131 20.9375 11.4023 20.9375Z" fill="white"/>
<path d="M13.6523 9.31246H8.40234C8.09161 9.31246 7.83984 9.06068 7.83984 8.74996V4.99996C7.83984 4.78682 7.96014 4.59218 8.15076 4.49678C8.34137 4.40175 8.56952 4.42207 8.73981 4.54988L9.84942 5.38228L10.6291 4.60225C10.8488 4.38252 11.205 4.38271 11.4247 4.60207L12.2051 5.3821L13.3149 4.54988C13.4855 4.42207 13.7135 4.40193 13.9039 4.49678C14.0945 4.59218 14.2148 4.78682 14.2148 4.99996V8.74996C14.2148 9.06068 13.9631 9.31246 13.6523 9.31246ZM8.96484 8.18746H13.0898V6.12477L12.4898 6.57485C12.2662 6.74275 11.9528 6.7206 11.7546 6.52266L11.0272 5.79537L10.3002 6.52266C10.1019 6.7206 9.78863 6.74294 9.56488 6.57503L8.96484 6.12496L8.96484 8.18746Z" fill="white"/>
<path d="M11.0273 17.5018C10.4449 17.5018 9.91424 17.1589 9.70678 16.6482C9.58978 16.3605 9.72839 16.0324 10.0162 15.9154C10.3033 15.798 10.632 15.9366 10.749 16.2249C10.7849 16.3129 10.9019 16.3768 11.0273 16.3768C11.256 16.3768 11.4492 16.2289 11.4492 16.0538V16.0104C11.4492 15.8314 11.064 15.7032 10.9312 15.6792C10.3947 15.5898 9.48047 15.185 9.48047 14.2394V14.196C9.48047 13.3977 10.1744 12.748 11.0273 12.748C11.6098 12.748 12.1404 13.091 12.3479 13.6017C12.4649 13.8893 12.3263 14.2175 12.0384 14.3345C11.7512 14.4515 11.4225 14.313 11.3057 14.025C11.2698 13.937 11.1528 13.873 11.0273 13.873C10.7986 13.873 10.6055 14.021 10.6055 14.196V14.2394C10.6055 14.4185 10.9907 14.5467 11.1235 14.5707C11.66 14.66 12.5742 15.0649 12.5742 16.0104V16.0538C12.5742 16.8522 11.8802 17.5018 11.0273 17.5018Z" fill="white"/>
<path d="M11.0273 13.8731C10.7166 13.8731 10.4648 13.6213 10.4648 13.3106V12.5C10.4648 12.1893 10.7166 11.9375 11.0273 11.9375C11.3381 11.9375 11.5898 12.1893 11.5898 12.5V13.3106C11.5898 13.6213 11.3381 13.8731 11.0273 13.8731Z" fill="white"/>
<path d="M11.0273 18.3126C10.7166 18.3126 10.4648 18.0608 10.4648 17.7501V16.9395C10.4648 16.6287 10.7166 16.377 11.0273 16.377C11.3381 16.377 11.5898 16.6287 11.5898 16.9395V17.7501C11.5898 18.0608 11.3381 18.3126 11.0273 18.3126Z" fill="white"/>
<path d="M17.7773 23.1875C14.9859 23.1875 12.7148 20.9164 12.7148 18.125C12.7148 15.3336 14.9859 13.0625 17.7773 13.0625C20.5688 13.0625 22.8398 15.3336 22.8398 18.125C22.8398 20.9164 20.5688 23.1875 17.7773 23.1875ZM17.7773 14.1875C15.6063 14.1875 13.8398 15.9539 13.8398 18.125C13.8398 20.2961 15.6063 22.0625 17.7773 22.0625C19.9484 22.0625 21.7148 20.2961 21.7148 18.125C21.7148 15.9539 19.9484 14.1875 17.7773 14.1875Z" fill="white"/>
<path d="M17.1211 20.1879C16.9719 20.1879 16.8289 20.1285 16.7234 20.0231L15.0359 18.3356C14.8162 18.116 14.8162 17.7597 15.0359 17.5402C15.2556 17.3204 15.6116 17.3204 15.8313 17.5402L17.1211 18.8298L19.7234 16.2273C19.9427 16.0076 20.2991 16.0076 20.5188 16.2273C20.7385 16.4468 20.7385 16.803 20.5188 17.0227L17.5188 20.0231C17.4133 20.1285 17.2703 20.1879 17.1211 20.1879Z" fill="white"/>
</g>
<defs>
<clipPath id="clip0_649_8350">
<rect width="25" height="24" fill="white" transform="translate(0.0458984)"/>
</clipPath>
</defs>
</svg>
